<svg xmlns="http://www.w3.org/2000/svg" width="216" height="216" viewBox="0 0 216 216" fill="none"><g clip-path="url(#clip0_336_6)"><path opacity="0.3" d="M108 216C167.647 216 216 167.647 216 108C216 48.3532 167.647 0 108 0C48.3532 0 0 48.3532 0 108C0 167.647 48.3532 216 108 216Z" fill="white"></path><path d="M108 192C154.392 192 192 154.392 192 108C192 61.6081 154.392 24 108 24C61.6081 24 24 61.6081 24 108C24 154.392 61.6081 192 108 192Z" fill="white"></path><path d="M119.719 107.999L102.667 96.6313V119.367L119.719 107.999ZM127.669 109.108L99.4064 127.951C98.7937 128.359 97.9659 128.194 97.5574 127.581C97.4114 127.362 97.3335 127.104 97.3335 126.841V89.1572C97.3335 88.4208 97.9305 87.8239 98.6668 87.8239C98.9301 87.8239 99.1874 87.9018 99.4064 88.0478L127.669 106.89C128.282 107.298 128.448 108.126 128.039 108.739C127.941 108.885 127.816 109.011 127.669 109.108Z" fill="#FF3C00"></path></g><defs><clipPath id="clip0_336_6"><rect width="216" height="216" fill="white"></rect></clipPath></defs></svg>