<svg xmlns="http://www.w3.org/2000/svg" width="161" height="57" viewBox="0 0 161 57" fill="none"><path d="M6.16242 44.1661C9.56583 44.1661 12.3248 41.4133 12.3248 38.0176C12.3248 34.6219 9.56583 31.8691 6.16242 31.8691C2.75901 31.8691 0 34.6219 0 38.0176C0 41.4133 2.75901 44.1661 6.16242 44.1661Z" fill="#FF2E00"></path><path d="M49.2313 25.1437V44.166H42.5264V25.8418C42.5264 21.188 39.8444 18.6576 35.5882 18.6576C30.8656 18.6576 27.7172 21.5662 27.7172 27.587V44.1951H21.0122V0.856934H27.7172V17.2033C29.7578 14.0329 32.9354 12.4332 37.3373 12.4332C44.4504 12.375 49.2313 17.2033 49.2313 25.1437Z" fill="#F3F3F3"></path><path d="M79.4624 13.1894H86.1674V44.1369H79.4624V39.6868C76.9262 43.2062 73.3114 44.9513 68.5887 44.9513C64.3034 44.9513 60.7177 43.4098 57.6567 40.2394C54.6249 37.069 53.1382 33.1715 53.1382 28.6632C53.1382 24.0676 54.6249 20.2282 57.6567 17.0869C60.6886 13.9166 64.3034 12.375 68.5887 12.375C73.3114 12.375 76.8971 14.1202 79.4624 17.5814V13.1894ZM69.6674 38.5815C72.466 38.5815 74.8273 37.6507 76.693 35.7892C78.5587 33.8696 79.4916 31.5136 79.4916 28.6632C79.4916 25.8127 78.5587 23.4568 76.693 21.5953C74.8273 19.6756 72.466 18.7448 69.6674 18.7448C66.8688 18.7448 64.5075 19.6756 62.6417 21.5953C60.776 23.4568 59.8431 25.8127 59.8431 28.6632C59.8431 31.5136 60.776 33.8696 62.6417 35.7892C64.5075 37.6507 66.8688 38.5815 69.6674 38.5815Z" fill="#F3F3F3"></path><path d="M120.916 17.1451C123.948 20.3155 125.435 24.1548 125.435 28.6632C125.435 33.2588 123.948 37.0981 120.916 40.2394C117.885 43.4098 114.27 44.9513 109.984 44.9513C105.262 44.9513 101.676 43.2062 99.1107 39.7449V56.5276H92.4058V13.1894H99.1107V17.6396C101.647 14.1202 105.262 12.375 109.984 12.375C114.27 12.375 117.885 14.0038 120.916 17.1451ZM108.935 38.5815C111.734 38.5815 114.095 37.6507 115.961 35.7892C117.826 33.8696 118.759 31.5136 118.759 28.6632C118.759 25.8127 117.826 23.4568 115.961 21.5953C114.095 19.6756 111.734 18.7448 108.935 18.7448C106.136 18.7448 103.775 19.6756 101.909 21.5953C100.044 23.4568 99.1107 25.8127 99.1107 28.6632C99.1107 31.5136 100.044 33.8696 101.909 35.7892C103.775 37.6507 106.136 38.5815 108.935 38.5815Z" fill="#F3F3F3"></path><path d="M133.014 40.2394C129.837 37.069 128.233 33.2297 128.233 28.6632C128.233 24.0676 129.837 20.2282 133.014 17.0869C136.192 13.9166 140.098 12.375 144.617 12.375C149.223 12.375 153.071 13.9166 156.219 17.0869C159.397 20.2573 161 24.0967 161 28.6632C161 33.2588 159.397 37.0981 156.219 40.2394C153.042 43.4098 149.194 44.9513 144.617 44.9513C140.098 44.9513 136.192 43.4098 133.014 40.2394ZM144.617 38.4361C147.357 38.4361 149.631 37.5053 151.497 35.6438C153.362 33.7823 154.295 31.4263 154.295 28.6341C154.295 25.8418 153.362 23.4859 151.497 21.6244C149.631 19.7628 147.328 18.8321 144.617 18.8321C141.877 18.8321 139.603 19.7628 137.737 21.6244C135.871 23.4859 134.938 25.8418 134.938 28.6341C134.938 31.4263 135.871 33.7823 137.737 35.6438C139.603 37.5053 141.877 38.4361 144.617 38.4361Z" fill="#F3F3F3"></path></svg>